<svg width="23" height="17" viewBox="0 0 23 17" fill="none" xmlns="http://www.w3.org/2000/svg">
    <g clip-path="url(#clip0_2099_13)">
        <path d="M3.50199 11.9966H0.746693C0.336012 11.9966 0 11.671 0 11.273V5.71249C0 5.31453 0.336012 4.98893 0.746693 4.98893H3.50199V11.9966ZM10.827 0L4.10681 4.99979V12.0002L10.827 17V0ZM12.4884 7.79272C13.097 8.38242 13.097 9.34475 12.4884 9.93807L13.4367 10.857C14.568 9.7608 14.568 7.97361 13.4367 6.87742L12.4884 7.79634V7.79272ZM15.6507 4.72845C18.0028 7.00766 18.0028 10.7195 15.6507 12.9951L16.599 13.914C19.4737 11.1283 19.4737 6.59523 16.599 3.80953L15.6507 4.72845ZM18.6524 1.81975C22.6584 5.70164 22.6584 12.0219 18.6524 15.9074L19.6007 16.8263C24.1331 12.4343 24.1331 5.29283 19.6007 0.90083L18.6524 1.81975Z" fill="#ffffff"/>
    </g>
    <defs>
        <clipPath id="clip0_2099_13">
            <rect width="23" height="17" fill="white"/>
        </clipPath>
    </defs>
</svg>
